<?xml version="1.0" encoding="UTF-8" standalone="no"?>
<svg
   width="2000"
   height="2000"
   viewBox="52.5 0 2000 2000"
   version="1.1"
   id="svg22"
   sodipodi:docname="sapmachine.svg"
   inkscape:version="1.3.2 (091e20e, 2023-11-25)"
   xmlns:inkscape="http://www.inkscape.org/namespaces/inkscape"
   xmlns:sodipodi="http://sodipodi.sourceforge.net/DTD/sodipodi-0.dtd"
   xmlns="http://www.w3.org/2000/svg"
   xmlns:svg="http://www.w3.org/2000/svg">
  <sodipodi:namedview
     id="namedview22"
     pagecolor="#ffffff"
     bordercolor="#666666"
     borderopacity="1.0"
     inkscape:showpageshadow="2"
     inkscape:pageopacity="0.0"
     inkscape:pagecheckerboard="0"
     inkscape:deskcolor="#d1d1d1"
     inkscape:zoom="0.118"
     inkscape:cx="944.91525"
     inkscape:cy="576.27119"
     inkscape:window-width="1248"
     inkscape:window-height="408"
     inkscape:window-x="0"
     inkscape:window-y="38"
     inkscape:window-maximized="0"
     inkscape:current-layer="svg22" />
  <defs
     id="defs22">
    <style
       id="style1">
      .cls-1, .cls-10, .cls-11, .cls-12, .cls-13, .cls-14, .cls-15, .cls-16, .cls-17, .cls-2, .cls-3, .cls-4, .cls-5, .cls-6, .cls-7, .cls-8, .cls-9 {
        fill-rule: evenodd;
      }

      .cls-1 {
        fill: url(#linear-gradient);
      }

      .cls-2 {
        fill: url(#linear-gradient-2);
      }

      .cls-3 {
        fill: url(#linear-gradient-3);
      }

      .cls-4 {
        fill: url(#linear-gradient-4);
      }

      .cls-5 {
        fill: url(#linear-gradient-5);
      }

      .cls-6 {
        fill: #ffe698;
      }

      .cls-7 {
        fill: url(#linear-gradient-6);
      }

      .cls-8 {
        fill: url(#linear-gradient-7);
      }

      .cls-9 {
        fill: #83dcf3;
      }

      .cls-10 {
        fill: #959595;
        opacity: 0.8;
      }

      .cls-12, .cls-17 {
        fill: #fff;
      }

      .cls-13 {
        fill: url(#linear-gradient-8);
      }

      .cls-14 {
        opacity: 0.73;
        fill: url(#linear-gradient-9);
      }

      .cls-15 {
        fill: url(#linear-gradient-10);
      }

      .cls-16 {
        fill: #08a4e4;
        opacity: 0.45;
      }

      .cls-17 {
        opacity: 0.5;
      }
    </style>
    <linearGradient
       id="linear-gradient"
       x1="673.844"
       y1="788.281"
       x2="673.844"
       y2="436.656"
       gradientUnits="userSpaceOnUse">
      <stop
         offset="0"
         stop-color="#30bae9"
         id="stop1" />
      <stop
         offset="1"
         stop-color="#a7d9ea"
         id="stop2" />
    </linearGradient>
    <linearGradient
       id="linear-gradient-2"
       x1="547.934"
       y1="1414.88"
       x2="486.754"
       y2="1067.91"
       gradientUnits="userSpaceOnUse">
      <stop
         offset="0"
         stop-color="#937266"
         id="stop3" />
      <stop
         offset="1"
         stop-color="#dbbcb0"
         id="stop4" />
    </linearGradient>
    <linearGradient
       id="linear-gradient-3"
       x1="486.594"
       y1="1231.326"
       x2="1755.59"
       y2="1231.326"
       gradientUnits="userSpaceOnUse">
      <stop
         offset="0"
         stop-color="#ffa92f"
         id="stop5" />
      <stop
         offset="0.004"
         stop-color="#ffa92f"
         id="stop6" />
      <stop
         offset="1"
         stop-color="#ffcc2f"
         id="stop7" />
    </linearGradient>
    <linearGradient
       id="linear-gradient-4"
       x1="1065.561"
       y1="1376"
       x2="1065.561"
       y2="861.062"
       gradientUnits="userSpaceOnUse">
      <stop
         offset="0"
         stop-color="#fddc76"
         id="stop8" />
      <stop
         offset="1"
         stop-color="#ffe699"
         id="stop9" />
    </linearGradient>
    <linearGradient
       id="linear-gradient-5"
       x1="486.594"
       y1="1262.061"
       x2="1689.81"
       y2="1262.061"
       gradientUnits="userSpaceOnUse">
      <stop
         offset="0"
         stop-color="#ff782f"
         id="stop10" />
      <stop
         offset="0.001"
         stop-color="#ff782f"
         id="stop11" />
      <stop
         offset="1"
         stop-color="#fb9c40"
         id="stop12" />
    </linearGradient>
    <linearGradient
       id="linear-gradient-6"
       x1="1190.613"
       y1="771.938"
       x2="1518.267"
       y2="333.156"
       gradientUnits="userSpaceOnUse">
      <stop
         offset="0"
         stop-color="#0f738d"
         id="stop13" />
      <stop
         offset="1"
         stop-color="#05647c"
         id="stop14" />
    </linearGradient>
    <linearGradient
       id="linear-gradient-7"
       x1="1491.825"
       y1="587.281"
       x2="1362.895"
       y2="363.969"
       gradientUnits="userSpaceOnUse">
      <stop
         offset="0"
         stop-color="#16a6cb"
         id="stop15" />
      <stop
         offset="1"
         stop-color="#70d6f0"
         id="stop16" />
    </linearGradient>
    <linearGradient
       id="linear-gradient-8"
       x1="1389.389"
       y1="1387.31"
       x2="1410.301"
       y2="1294.97"
       gradientUnits="userSpaceOnUse">
      <stop
         offset="0"
         stop-color="#c5224c"
         id="stop17" />
      <stop
         offset="1"
         stop-color="#ff0042"
         id="stop18" />
    </linearGradient>
    <linearGradient
       id="linear-gradient-9"
       x1="1250.78"
       y1="1484.16"
       x2="1250.78"
       y2="1121.12"
       gradientUnits="userSpaceOnUse">
      <stop
         offset="0"
         stop-color="#377798"
         stop-opacity="0.631"
         id="stop19" />
      <stop
         offset="1"
         stop-color="#23b3fd"
         stop-opacity="0.6"
         id="stop20" />
    </linearGradient>
    <linearGradient
       id="linear-gradient-10"
       x1="1241.358"
       y1="1424.47"
       x2="1241.358"
       y2="1149.47"
       gradientUnits="userSpaceOnUse">
      <stop
         offset="0"
         stop-color="#b7d1da"
         id="stop21" />
      <stop
         offset="1"
         stop-color="#b7d1da"
         stop-opacity="0"
         id="stop22" />
    </linearGradient>
  </defs>
  <path
     id="propeller"
     class="cls-2"
     d="M522.909,1281.24c-70.7,154.4-178.686,166.59-135.969,79.61,27.437-57.31,78.33-96.47,82.63-98.46,48.107-17.58,9.913-31.25,2.965-34.99-96.053-31-162.813-171.77-74.658-129.01,55,26.2,83.377,44.97,106.436,83.6,24.716,45.98,26.541,9.77,35.689-4.31,5.359-21.03,54.224-78.38,77.707-91.55,92.9-49.86,50.766,18.3,50.766,18.3C652,1128,596,1206,522.909,1281.24Z" />
  <path
     id="body"
     class="cls-3"
     d="M1517.7,898.947c206.82,95.263,238.92,326.313,237.87,385.263,4.21,349.47-377.85,417.9-569.4,409.47-376.8-29.47-568.353-135.79-643.08-314.73-82.1-75.79-50.52-117.9-50.52-117.9s32.914,2.49,40-2.1c-4.019-16.27-2.679-50.53,2.488-62.97,1.913-6.89,5.741-10.91,13.395-14.74,33.489-13.01,95.682-31.06,173.567-40.19,13.288-5,35-22.23,37.89-27.37C868.663,964.21,1040.06,922.3,1039.87,922.105c2.3-25.837,31.77-47.464,31.57-47.081-0.19-19.139,45.36-110.239,159.98-106.6,56.14,2.1,203.55,17.574,206.29,18.947,0.46,2.38,6.32,52.632,6.32,52.632l10.52,21.052S1529.81,861.579,1517.7,898.947Z" />
  <path
     id="top_lights"
     data-name="top lights"
     class="cls-4"
     d="M1351.41,938.947c224.53-13.333,263.12,74.383,267.33,101.053,2.11,33.68-43.5,34.39-59.64,12.63C1521.91,991.579,1369.65,951.579,1351.41,938.947Zm166.29-40c-22.36-14.737-150.5-3.158-227.34-20.263,66.31-6.053,164.19-17.632,164.19-17.632S1529.81,861.579,1517.7,898.947ZM532.182,1259.11c-1.854,1.61-11.613,2.76-19.911,2.67C525.987,1328.29,722,1334,756,1326c96-18,128,50,128,50s-26-80-70-80c-26,2-288.516,1.22-281.435-37.05C532.444,1259,532.317,1259.06,532.182,1259.11Z" />
  <path
     id="bottom_lights"
     data-name="bottom lights"
     class="cls-5"
     d="M1039.87,922.105c3.11-26.636,31.84-47.105,31.77-47.081,34.01-21.077,114-41.866,141.54-44.849,135.07-2.807,230.85,10.088,230.85,10.088s10.66,20.921,10.52,20.921-380.47,40.395-380.47,40.395S1042.62,903.524,1039.87,922.105ZM912,1430c11.577,13.68,22.473,34.68,18,46-94.725,8.42-278.5-28.63-386.91-97.05-82.1-75.79-50.52-117.9-50.52-117.9C526.776,1408.42,798.33,1422.63,912,1430Zm777.8,74.56c-117.01,159.68-362.23,195.34-503.63,189.12-376.8-29.47-568.353-135.79-643.08-314.73C867.26,1584.21,1272.47,1709.47,1689.8,1504.56Z" />
  <path
     id="roof_light"
     data-name="roof light"
     class="cls-6"
     d="M1213.01,830.526c8.15-27.368,7.36-23.684,18.41-62.1,56.14,2.1,203.55,17.574,206.29,18.947,0.46,2.38,6.32,52.632,6.32,52.632S1295.1,825.263,1213.01,830.526Z" />
  <path
     id="rescope"
     class="cls-7"
     d="M1192.83,771.93C1239.67,700.351,1080,520,1310,388c62-36,142-64,170-52,84,40,71.26,364.268-170,260-76-40-48.12,138.005-40.69,175.93C1263.53,767.193,1203.62,766.93,1192.83,771.93Z" />
  <path
     id="recope_glass"
     data-name="recope glass"
     class="cls-8"
     d="M1464,366c-116-28-144,242-52,220C1514,572,1516,380,1464,366Z" />
  <path
     id="rescope_glass_light"
     data-name="rescope glass light"
     class="cls-9"
     d="M1454.98,382.316C1498.66,435.474,1485.89,498.105,1468,526c-26.84,34.737-33.58,25.474-22,6C1464.42,496.737,1495.5,485.474,1454.98,382.316Z" />
  <path
     id="window_background"
     data-name="window background"
     class="cls-10"
     d="M834.7,1162.11c9.218,23.69,7.328,73.97-22.174,82.83-17.722,5.33-30.45-11.25-35.575-25.99-9.075-26.11-5.844-68.66,22.945-80.73C817.994,1134.92,828.51,1146.18,834.7,1162.11Zm156.206,12.63c22.05,45.27,11.42,131.76-45.765,144.17-33.012,7.17-56.475-17.68-68.81-45.23-20.846-46.55-7.5-124.74,47.76-139.96C956.353,1128.61,977.424,1147.05,990.91,1174.74Zm223.91,16.84c22.85,48.62,22.91,115.21-4.48,162.1-16.96,29.03-44.79,51.87-79.96,50.45-42.06-1.7-70.71-36.82-84.08-73.6-25.04-68.89-7.28-178.5,75.66-196.92C1163.95,1127.8,1197.62,1154.98,1214.82,1191.58Zm158.34-68.77c53.68-4.21,251.55,0,282.07,6.31,47.53,11.69,78.54,57.63,73.29,100.1-51.57,362.1-392.29,308.13-440.52,27.94C1285.71,1236.11,1266.57,1134.29,1373.16,1122.81Z" />
  <path
     id="duke_top"
     data-name="duke top"
     class="cls-11"
     d="M1443.26,1182.78c-81.52,43.25-122.09,155.78-122.85,171.86,69.27-23.35,155-4.21,171.08,8.42,5.74,4.21,8.04,20.29,8.8,24.12,8.42,0,13.01-20.29,13.01-20.29s32.32-38.56,34.45-39.43c6.01,1.6,23.77.87,26.41,0,17.22,11.3,25.26-6.12,15.31-8.42,16.45-.76,9.56-17.8,3.44-20.28,9.38-7.66,4.78-12.64-1.15-15.32,0,0-21.62.2-22-2.29,0.38-20.86,7.84-35.98-23.54-27.56,0,0,7.46,33.68,6.12,35.41-7.46.57-11.48,23.92-9.76,35.59,0,0-29.09,36.37-31.19,37.52-1.34-5.75-12.82-5.56-20.48-5.17C1492.44,1349.09,1450.54,1190.05,1443.26,1182.78Z" />
  <path
     id="duke_bottom"
     data-name="duke bottom"
     class="cls-12"
     d="M1331,1373c-3.79-6.04-7.28-12.09-10.59-18.36,69.27-23.35,155-4.21,171.08,8.42,4.43,3.49,6.12,13.94,8.8,24.12,14.01,53.22,16.27,85.44,5.71,92.82-5.15,3.6-11.45,3.09-22,1-20.29-4.03-42.38-10.74-51-15-24.4-12.06-44.1-26.08-60-41C1358.44,1411.33,1344.49,1394.49,1331,1373Zm-10-18" />
  <path
     id="duke_nose"
     data-name="duke nose"
     class="cls-13"
     d="M1441.24,1311.77c21.43,24,12.37,66.81-30.89,74.62-16.18,2.92-35.81-1.24-48.22-12.34a44.2,44.2,0,0,1,1.99-67.67c8.06-6.45,15.39-8.49,25.18-10.67C1408.06,1293.12,1428.12,1297.09,1441.24,1311.77Z" />
  <path
     id="duke_nose_light"
     data-name="duke nose light"
     class="cls-12"
     d="M1400.29,1332.63c-11.67,4.22-24.21-10-10.79-19.21C1405.81,1309.21,1411.85,1328.45,1400.29,1332.63Z" />
  <path
     id="window_glass"
     data-name="window glass"
     class="cls-14"
     d="M834.7,1162.11c9.218,23.69,7.328,73.97-22.174,82.83-17.722,5.33-30.45-11.25-35.575-25.99-9.075-26.11-5.844-68.66,22.945-80.73C817.994,1134.92,828.51,1146.18,834.7,1162.11Zm156.206,12.63c22.05,45.27,11.42,131.76-45.765,144.17-33.012,7.17-56.475-17.68-68.81-45.23-20.846-46.55-7.5-124.74,47.76-139.96C956.353,1128.61,977.424,1147.05,990.91,1174.74Zm223.91,16.84c22.85,48.62,22.91,115.21-4.48,162.1-16.96,29.03-44.79,51.87-79.96,50.45-42.06-1.7-70.71-36.82-84.08-73.6-25.04-68.89-7.28-178.5,75.66-196.92C1163.95,1127.8,1197.62,1154.98,1214.82,1191.58Zm158.34-68.77c53.68-4.21,251.55,0,282.07,6.31,47.53,11.69,78.54,57.63,73.29,100.1-51.57,362.1-392.29,308.13-440.52,27.94C1285.71,1236.11,1266.57,1134.29,1373.16,1122.81Z" />
  <path
     id="window_glass_lights"
     data-name="window glass lights"
     class="cls-15"
     d="M792.883,1149.47c-14.033,26.67-14.735,55.44-4.911,73.69,6.315,13.33,15.436,0,6.315-14.04C780.955,1188.77,788.673,1176.84,792.883,1149.47Zm108.057,9.13c-35.785,33.68-22.453,109.47-4.912,125.61,18.244,15.44,16.84-.7,8.42-12.63C879.89,1235.09,887.608,1183.86,900.94,1158.6Zm175.42,23.86s-65.26,73.68,2.8,181.75c16.84,25.97,28.07-16.84,14.04-32.28C1027.24,1265.96,1076.36,1182.46,1076.36,1182.46Zm592.9-28.78s95.43,81.41-42.8,262.46c-20.35,22.46-35.78-4.91-12.63-30.18C1720.49,1256.84,1682.6,1171.93,1669.26,1153.68Z" />
  <path
     id="bubbles_light"
     data-name="bubbles light"
     class="cls-17"
     d="M529,1028a6.615,6.615,0,0,1,1,8c-2.241,3.64-8.323,4.19-11,1a6.634,6.634,0,0,1,0-8C521.3,1025.96,526.216,1025.34,529,1028Zm-49-71a2,2,0,1,1-2,2A2.01,2.01,0,0,1,480,957Zm5-87a2.236,2.236,0,1,1-3,1A2.247,2.247,0,0,1,485,870Zm70,58a3.583,3.583,0,0,1,1,4,3.69,3.69,0,0,1-3,2,3.823,3.823,0,0,1-4-2,3.6,3.6,0,0,1,1-4A3.828,3.828,0,0,1,555,928ZM1670,828a7.709,7.709,0,0,1,6,5,8.27,8.27,0,0,1-1,7c-0.72,1.158-2.76,3.823-6,4a7.767,7.767,0,0,1-7-4,8.067,8.067,0,0,1,0-8A7.945,7.945,0,0,1,1670,828Zm12-72a2.736,2.736,0,0,1-1,3,2.652,2.652,0,0,1-3,0,2.761,2.761,0,0,1-1-3,2.7,2.7,0,0,1,2-2A2.769,2.769,0,0,1,1682,756Zm-75-30a4.016,4.016,0,0,1,4,3,3.916,3.916,0,0,1-2,4,4.039,4.039,0,0,1-4,0,3.916,3.916,0,0,1-2-4A4.007,4.007,0,0,1,1607,726Z" />
</svg>
